<?xml version="1.0" encoding="UTF-8" standalone="no"?>
<!-- Created with Inkscape (http://www.inkscape.org/) -->

<svg
   version="1.1"
   id="svg2"
   xml:space="preserve"
   width="2424.3281"
   height="886.90082"
   viewBox="0 0 2424.3281 886.90084"
   sodipodi:docname="hello.svg"
   inkscape:version="1.4.3 (0d15f75042, 2025-12-25)"
   xmlns:inkscape="http://www.inkscape.org/namespaces/inkscape"
   xmlns:sodipodi="http://sodipodi.sourceforge.net/DTD/sodipodi-0.dtd"
   xmlns:xlink="http://www.w3.org/1999/xlink"
   xmlns="http://www.w3.org/2000/svg"
   xmlns:svg="http://www.w3.org/2000/svg"><sodipodi:namedview
     id="namedview1"
     pagecolor="#505050"
     bordercolor="#ffffff"
     borderopacity="1"
     inkscape:showpageshadow="0"
     inkscape:pageopacity="0"
     inkscape:pagecheckerboard="1"
     inkscape:deskcolor="#505050"
     inkscape:zoom="0.36484335"
     inkscape:cx="1047.0247"
     inkscape:cy="592.03491"
     inkscape:window-width="2560"
     inkscape:window-height="1383"
     inkscape:window-x="0"
     inkscape:window-y="0"
     inkscape:window-maximized="1"
     inkscape:current-layer="svg2" /><defs
     id="defs6"><linearGradient
       id="linearGradient21"><stop
         style="stop-color:#3cf0c7;stop-opacity:1;"
         offset="0"
         id="stop20" /><stop
         style="stop-color:#414aff;stop-opacity:1;"
         offset="1"
         id="stop21" /></linearGradient><linearGradient
       id="linearGradient19"><stop
         style="stop-color:#8cf8a8;stop-opacity:1;"
         offset="0.00216721"
         id="stop18" /><stop
         style="stop-color:#779aff;stop-opacity:1;"
         offset="1"
         id="stop19" /></linearGradient><linearGradient
       id="linearGradient874"><stop
         style="stop-color:#ef8cf8;stop-opacity:1;"
         offset="0"
         id="stop8285" /><stop
         style="stop-color:#c9a4ff;stop-opacity:1;"
         offset="1"
         id="stop8287" /></linearGradient><linearGradient
       id="linearGradient874-3"><stop
         style="stop-color:#e43cf0;stop-opacity:1;"
         offset="0"
         id="stop7554" /><stop
         style="stop-color:#8f41ff;stop-opacity:1;"
         offset="1"
         id="stop7556" /></linearGradient><clipPath
       clipPathUnits="userSpaceOnUse"
       id="clipPath16"><path
         d="M 0,1757.48 H 1757.48 V 0 H 0 Z"
         id="path14" /></clipPath><linearGradient
       xlink:href="#linearGradient874"
       id="linearGradient876"
       x1="-496.82367"
       y1="152.59677"
       x2="976.99487"
       y2="152.59677"
       gradientUnits="userSpaceOnUse"
       gradientTransform="translate(-2.9426619e-5,5.4104005e-5)" /><linearGradient
       xlink:href="#linearGradient874-3"
       id="linearGradient966"
       gradientUnits="userSpaceOnUse"
       gradientTransform="translate(-2.9e-5,5.4e-5)"
       x1="-496.82367"
       y1="152.59677"
       x2="976.99487"
       y2="152.59677" /><filter
       style="color-interpolation-filters:sRGB"
       id="filter1342"
       x="-0.05741819"
       y="-0.17448295"
       width="1.1148364"
       height="1.3489659"><feGaussianBlur
         stdDeviation="35.26 35.26"
         result="blur"
         id="feGaussianBlur1340" /></filter><filter
       style="color-interpolation-filters:sRGB"
       id="filter10091"
       x="-0.80510193"
       y="-0.18130066"
       width="2.8099952"
       height="1.4075923"><feGaussianBlur
         stdDeviation="35.26 35.26"
         result="blur"
         id="feGaussianBlur10089" /></filter><linearGradient
       inkscape:collect="always"
       xlink:href="#linearGradient874"
       id="linearGradient2"
       x1="71.21492"
       y1="459.65753"
       x2="1249.2169"
       y2="459.65753"
       gradientUnits="userSpaceOnUse"
       gradientTransform="translate(965.83087,16.134548)" /><filter
       style="color-interpolation-filters:sRGB;"
       inkscape:label="Blur"
       id="filter1"
       x="-0.056470559"
       y="-0.22153835"
       width="1.1129411"
       height="1.4430767"><feGaussianBlur
         stdDeviation="50 50"
         result="blur"
         id="feGaussianBlur1" /></filter><linearGradient
       inkscape:collect="always"
       xlink:href="#linearGradient874-3"
       id="linearGradient14"
       gradientUnits="userSpaceOnUse"
       gradientTransform="translate(965.83088,16.134461)"
       x1="87.214973"
       y1="459.65753"
       x2="1225.3809"
       y2="459.65753" /><filter
       inkscape:collect="always"
       style="color-interpolation-filters:sRGB"
       id="filter14"
       x="-0.096905538"
       y="-0.19216025"
       width="1.1938111"
       height="1.3843205"><feGaussianBlur
         inkscape:collect="always"
         stdDeviation="47.517545"
         id="feGaussianBlur14" /></filter><linearGradient
       inkscape:collect="always"
       xlink:href="#linearGradient19"
       id="linearGradient23"
       x1="64.378212"
       y1="408.97174"
       x2="796.47681"
       y2="408.97174"
       gradientUnits="userSpaceOnUse"
       gradientTransform="translate(139.81264,27.854438)" /><linearGradient
       inkscape:collect="always"
       xlink:href="#linearGradient21"
       id="linearGradient24"
       gradientUnits="userSpaceOnUse"
       x1="64.378212"
       y1="408.97174"
       x2="796.47681"
       y2="408.97174"
       gradientTransform="translate(139.81263,27.854438)" /><filter
       inkscape:collect="always"
       style="color-interpolation-filters:sRGB"
       id="filter24"
       x="-0.18990256"
       y="-0.19473165"
       width="1.3798051"
       height="1.3894633"><feGaussianBlur
         inkscape:collect="always"
         stdDeviation="57.928083"
         id="feGaussianBlur24" /></filter></defs><path
     style="font-size:666.667px;font-family:Whitenice;-inkscape-font-specification:Whitenice;fill:url(#linearGradient14);stroke-width:1.88976;stroke-linecap:round;stroke-linejoin:round;paint-order:markers stroke fill;filter:url(#filter14)"
     d="m 1224.3793,385.49484 q 18,-1.33333 28,2 10,2.66667 14.6667,8.00001 5.3333,4.66667 6,10 0.6667,4.66667 0,7.33334 -6,18.00001 -14,36.00002 -7.3333,17.33334 -14,36.00002 -6,18 -10,36.66668 -3.3333,18.66668 -1.3333,38.00002 31.3333,-16.66668 56.6666,-42.66669 25.3334,-26.66668 42.6667,-56.66669 4.6667,-8.66667 11.3334,-10.66668 6.6666,-2 11.3333,1.33334 5.3333,2.66667 7.3333,9.33334 2.0001,6.66667 -2.6666,15.33334 -14.6667,28.00001 -34.6667,51.33336 -19.3333,23.33334 -42.6667,44.00002 -26.6667,24.00001 -45.3333,26.66668 -18.0001,2.66666 -28.6667,-8.00001 -10.6667,-11.33334 -14,-32.00001 -2.6667,-21.33335 2,-44.66669 -6,6.66667 -15.3334,16.66667 -9.3333,9.33334 -18.6666,18.66668 -8.6667,8.66667 -16.0001,16.00001 -7.3333,7.33333 -10,9.33334 -32,25.33334 -54.6667,21.33334 -22.6666,-4 -34,-26.00001 -11.3333,-22.00001 -10.6666,-55.33336 0.6666,-34.00002 15.3333,-67.33337 10,-22.66668 27.3333,-43.33335 16.6667,-19.33335 34.6667,-26.00002 18,-7.33333 36,-6.66667 18.6667,0 36.6667,5.33334 18.6667,4.66667 36.6667,10 z m -19.3333,38.00002 q -30,-18.66667 -56.0001,-14.66667 -25.3333,4 -43.3333,22.66668 -17.3334,18 -25.3334,46.66669 -7.3333,28.00001 -1.3333,56.66669 4,20.00001 13.3334,21.33334 9.3333,1.33334 26.6666,-13.33334 6.6667,-5.33333 16.6667,-16.66667 10.6667,-12.00001 22,-28.00002 12,-16 24,-35.33335 12.6667,-19.33334 23.3334,-39.33335 z m 179.3334,84.00004 q 12.6667,-8.66667 26.6667,-18.66667 14,-10.00001 28.6667,-18.00001 14.6667,-8.66667 29.3333,-14.00001 15.3334,-6 30.6667,-6 10.6667,0 16.6667,5.33333 6,4.66667 6.6667,10.66668 0.6666,6 -3.3334,11.33334 -3.3333,5.33333 -11.3333,6.66667 -16.6667,3.33333 -30,8 -12.6667,4.66667 -24.6667,11.33334 -11.3333,6.66667 -23.3334,15.33334 -11.3333,8 -24.6666,18.00001 -4.6667,3.33333 -5.3334,6 -0.6666,2.66667 0.6667,8 6,28.66668 4,52.6667 -1.3333,23.33334 -16,48.66669 -7.3333,12.66667 -21.3333,26.00001 -13.3334,13.33334 -30.0001,22.00001 -16.6666,8.66667 -34,10.00001 -17.3333,1.33333 -31.3333,-10.00001 -11.3334,-9.33334 -12.6667,-22.66668 -2,-13.33334 1.3333,-26.66668 4,-18.00001 13.3334,-33.33335 9.3333,-15.33334 22,-28.66668 12,-14 26,-26.66668 13.3333,-12.66667 26,-24.66668 4,-4 4.6667,-6.66667 0.6666,-3.33333 -1.3334,-8.66667 -7.3333,-17.33334 -14,-33.33335 -7.3333,-16.66667 -10.6666,-32.66668 -3.3334,-16.00001 -0.6667,-32.66668 2.6667,-16.66668 16,-34.66668 5.3333,-7.33334 12,-15.33335 7.3333,-8 15.3334,-14.66667 8.6666,-7.33334 17.3333,-12.00001 9.3333,-4.66666 19.3333,-6 7.3334,-0.66667 13.3334,2.66667 6,2.66667 7.3333,10 2,8.00001 -1.3333,12.66668 -3.3334,4.66667 -10.6667,8 -25.3333,10.00001 -36.6667,24.66668 -11.3333,14.66667 -13.3333,32.00002 -2,17.33334 4,36.66668 6,19.33334 15.3333,39.33335 z m -20,65.33337 q -14,12.66667 -29.3333,28.66668 -15.3334,15.33334 -26,32.66668 -19.3334,31.33335 -9.3334,37.33335 9.3334,6.00001 36.6667,-13.33334 19.3333,-15.33334 28.6667,-38.66668 10,-23.33335 2,-47.33336 z M 1530.38,478.16156 q 13.3334,-22.00002 28.6667,-44.00003 16,-22.66667 33.3334,-42.00002 10,-11.33334 23.3333,-19.33334 19.3334,-11.33334 35.3334,-8 16,3.33333 24.6666,14.66667 6.6667,9.33334 9.3334,22.00001 3.3333,12.00001 4,25.33335 1.3333,13.33334 0,26.00001 -0.6667,12.00001 -2,20.66668 -1.3334,6.66667 -2.6667,18.66667 -1.3333,11.33334 -2,24.00001 0,12.66668 1.3333,24.66668 2,11.33334 7.3334,18.66668 5.3333,7.33334 14,8.66667 9.3333,1.33333 24,-8 10.6667,-6.66667 21.3333,-16.00001 11.3334,-10.00001 20.0001,-21.33335 9.3333,-11.33334 15.3333,-24.00001 6.6667,-12.66667 9.3333,-25.33334 1.3334,-6.00001 2.6667,-11.33334 2,-5.33334 4.6667,-8.66667 3.3333,-3.33334 8,-3.33334 4.6666,0 12,4 7.3333,4.00001 5.3333,18.00001 -2,14.00001 -10.6667,32.00002 -8.6666,17.33334 -23.3333,36.66668 -14,18.66668 -31.3333,34.00002 -16.6667,14.66667 -35.3334,23.33334 -18.6667,8.00001 -36,4.00001 -21.3334,-4.66667 -30.6667,-22.00002 -8.6667,-18 -11.3333,-40.00001 -2,-22.00002 0,-44.66669 2,-23.33335 2.6666,-39.33336 1.3334,-38.00001 -8,-44.00002 -9.3333,-6.66667 -24.6667,7.33334 -14.6666,14.00001 -32.6666,41.33335 -17.3334,27.33335 -34,56.00003 -16.0001,28.00001 -28.0001,51.33336 -12,23.33334 -15.3333,28.66668 -4,7.33334 -9.3333,11.33334 -5.3334,4 -14.6667,0.66667 -9.3334,-3.33334 -11.3334,-10.00001 -2.6666,-7.33334 -2,-16.00001 2,-32.66668 10,-66.6667 7.3334,-34.00001 15.3334,-66.00003 19.3333,-80.00004 40,-158.66674 20.6667,-79.33337 42.6667,-158.66675 1.3333,-5.33333 3.3333,-9.33333 2,-4.00001 8.6667,-5.33334 11.3333,-2.66667 18.6667,5.33334 7.3333,8 6,18.66667 -2,23.33335 -12,48.00002 -9.3334,24.00002 -16,47.33336 -11.3334,39.33335 -20,78.66671 -8.6667,38.66668 -18.6667,78.6667 -5.3334,19.33334 -12,40.66669 -6.6667,21.33334 -8,41.33335 l 0.6666,1.33334 z m 292.0004,-91.33338 q 2.6666,-8.00001 10,-10.00001 7.3333,-2.66667 14,-0.66666 6.6666,2 10.6666,8 4.6667,5.33334 2.6667,14.00001 -5.3333,20.00001 -12,40.66668 -6.6667,20.00001 -12.6667,40.66669 -10,36.00002 -8.6666,54.00003 1.3333,17.33334 10,22.00001 9.3333,4 23.3333,-2.66667 14,-6.66667 28.6667,-20.00001 15.3333,-14.00001 29.3333,-31.33335 14,-18.00001 22.6667,-36.00002 2,-4 3.3334,-6.66667 1.3333,-3.33333 4.6666,-6.66667 4.6667,-5.33333 10.6667,-5.33333 6.6667,0 10.6667,4 4.6666,3.33333 6.6666,9.33334 2,6 -0.6666,12.66667 -10.6667,24.00001 -29.3334,50.66669 -18.6667,26.66668 -46,47.33336 -28.6667,22.00001 -51.3334,25.33334 -22,3.33334 -36.6666,-6.66667 -14.6667,-10 -21.3334,-30.00001 -6.6667,-20.00001 -4.6667,-44.66669 2.6667,-30.00001 14.0001,-64.6667 11.3333,-34.66668 22,-63.33336 z m 44,-69.33337 q -11.3334,0 -16.6667,-6 -4.6667,-6.66667 -4,-14.00001 0.6667,-7.33334 6,-13.33334 5.3333,-6 14.6667,-6 10,0 14.6667,6.66667 5.3333,6 4.6666,13.33334 0,7.33333 -5.3333,13.33334 -4.6667,6 -14,6 z m 105.3329,164.00008 q -5.3333,18.00001 -2,34.66668 4,16.00001 14,28.00002 10.6667,11.33334 26,17.33334 16,6 34,2.66667 32.6667,-5.33334 56.6667,-22.66668 24.6667,-17.33334 42.6667,-36.66669 18,-19.33334 30.6667,-35.33335 12.6667,-16 21.3333,-18.66667 4.6667,-1.33334 8.6667,0 4,1.33333 6.6667,4.66667 3.3333,3.33333 4,7.33333 0.6666,4.00001 -2,8.00001 -12.6667,22.00001 -31.3334,44.66669 -18.6667,22.00001 -41.3333,40.66668 -22.6667,18.00001 -48.6667,30.66668 -25.3334,12.00001 -51.3334,14.00001 -24.6667,2 -45.3333,-5.33333 -20.6667,-8.00001 -35.3334,-23.33335 -14,-16.00001 -20.6667,-37.33335 -7.3333,-21.33334 -4,-46.00002 2.6667,-22.00001 13.3334,-44.00002 10.6666,-22.66668 27.3333,-42.00002 16.6667,-19.33335 36.6667,-33.33335 20.6667,-14.00001 42.6667,-19.33335 24,-6 41.3333,-0.66666 17.3334,5.33333 26.6667,18 9.3334,12.00001 10,29.33335 1.3334,17.33334 -6.6666,35.33335 -8,17.33334 -26,33.33335 -18.0001,15.33334 -46.6667,24.66668 -12.6667,4 -26.0001,5.33334 -12.6666,1.33333 -25.3333,-2 -8,-2 -15.3333,-5.33334 -6.6667,-3.33333 -14.6667,-6.66667 z m 20,-40.66669 q 4.6667,13.33334 16,17.33335 11.3333,3.33333 24.6667,0.66666 14,-3.33333 27.3333,-11.33334 14,-8 23.3334,-18.00001 10,-10 13.3333,-20.66667 3.3334,-10.66667 -4,-19.33334 -4.6667,-5.33334 -10.6667,-5.33334 -5.3333,-0.66667 -12,0.66667 -25.3333,5.33333 -44,21.33334 -18.6667,15.33334 -34,34.66668 z"
     id="text1-2"
     aria-label="ashie" /><path
     style="font-size:666.667px;font-family:Whitenice;-inkscape-font-specification:Whitenice;fill:url(#linearGradient2);stroke-width:1.88976;stroke-linecap:round;stroke-linejoin:round;paint-order:markers stroke fill"
     d="m 1224.3793,385.49484 q 18,-1.33333 28,2 10,2.66667 14.6667,8.00001 5.3333,4.66667 6,10 0.6667,4.66667 0,7.33334 -6,18.00001 -14,36.00002 -7.3333,17.33334 -14,36.00002 -6,18 -10,36.66668 -3.3333,18.66668 -1.3333,38.00002 31.3333,-16.66668 56.6666,-42.66669 25.3334,-26.66668 42.6667,-56.66669 4.6667,-8.66667 11.3334,-10.66668 6.6666,-2 11.3333,1.33334 5.3333,2.66667 7.3333,9.33334 2.0001,6.66667 -2.6666,15.33334 -14.6667,28.00001 -34.6667,51.33336 -19.3333,23.33334 -42.6667,44.00002 -26.6667,24.00001 -45.3333,26.66668 -18.0001,2.66666 -28.6667,-8.00001 -10.6667,-11.33334 -14,-32.00001 -2.6667,-21.33335 2,-44.66669 -6,6.66667 -15.3334,16.66667 -9.3333,9.33334 -18.6666,18.66668 -8.6667,8.66667 -16.0001,16.00001 -7.3333,7.33333 -10,9.33334 -32,25.33334 -54.6667,21.33334 -22.6666,-4 -34,-26.00001 -11.3333,-22.00001 -10.6666,-55.33336 0.6666,-34.00002 15.3333,-67.33337 10,-22.66668 27.3333,-43.33335 16.6667,-19.33335 34.6667,-26.00002 18,-7.33333 36,-6.66667 18.6667,0 36.6667,5.33334 18.6667,4.66667 36.6667,10 z m -19.3333,38.00002 q -30,-18.66667 -56.0001,-14.66667 -25.3333,4 -43.3333,22.66668 -17.3334,18 -25.3334,46.66669 -7.3333,28.00001 -1.3333,56.66669 4,20.00001 13.3334,21.33334 9.3333,1.33334 26.6666,-13.33334 6.6667,-5.33333 16.6667,-16.66667 10.6667,-12.00001 22,-28.00002 12,-16 24,-35.33335 12.6667,-19.33334 23.3334,-39.33335 z m 179.3334,84.00004 q 12.6667,-8.66667 26.6667,-18.66667 14,-10.00001 28.6667,-18.00001 14.6667,-8.66667 29.3333,-14.00001 15.3334,-6 30.6667,-6 10.6667,0 16.6667,5.33333 6,4.66667 6.6667,10.66668 0.6666,6 -3.3334,11.33334 -3.3333,5.33333 -11.3333,6.66667 -16.6667,3.33333 -30,8 -12.6667,4.66667 -24.6667,11.33334 -11.3333,6.66667 -23.3334,15.33334 -11.3333,8 -24.6666,18.00001 -4.6667,3.33333 -5.3334,6 -0.6666,2.66667 0.6667,8 6,28.66668 4,52.6667 -1.3333,23.33334 -16,48.66669 -7.3333,12.66667 -21.3333,26.00001 -13.3334,13.33334 -30.0001,22.00001 -16.6666,8.66667 -34,10.00001 -17.3333,1.33333 -31.3333,-10.00001 -11.3334,-9.33334 -12.6667,-22.66668 -2,-13.33334 1.3333,-26.66668 4,-18.00001 13.3334,-33.33335 9.3333,-15.33334 22,-28.66668 12,-14 26,-26.66668 13.3333,-12.66667 26,-24.66668 4,-4 4.6667,-6.66667 0.6666,-3.33333 -1.3334,-8.66667 -7.3333,-17.33334 -14,-33.33335 -7.3333,-16.66667 -10.6666,-32.66668 -3.3334,-16.00001 -0.6667,-32.66668 2.6667,-16.66668 16,-34.66668 5.3333,-7.33334 12,-15.33335 7.3333,-8 15.3334,-14.66667 8.6666,-7.33334 17.3333,-12.00001 9.3333,-4.66666 19.3333,-6 7.3334,-0.66667 13.3334,2.66667 6,2.66667 7.3333,10 2,8.00001 -1.3333,12.66668 -3.3334,4.66667 -10.6667,8 -25.3333,10.00001 -36.6667,24.66668 -11.3333,14.66667 -13.3333,32.00002 -2,17.33334 4,36.66668 6,19.33334 15.3333,39.33335 z m -20,65.33337 q -14,12.66667 -29.3333,28.66668 -15.3334,15.33334 -26,32.66668 -19.3334,31.33335 -9.3334,37.33335 9.3334,6.00001 36.6667,-13.33334 19.3333,-15.33334 28.6667,-38.66668 10,-23.33335 2,-47.33336 z M 1530.38,478.16156 q 13.3334,-22.00002 28.6667,-44.00003 16,-22.66667 33.3334,-42.00002 10,-11.33334 23.3333,-19.33334 19.3334,-11.33334 35.3334,-8 16,3.33333 24.6666,14.66667 6.6667,9.33334 9.3334,22.00001 3.3333,12.00001 4,25.33335 1.3333,13.33334 0,26.00001 -0.6667,12.00001 -2,20.66668 -1.3334,6.66667 -2.6667,18.66667 -1.3333,11.33334 -2,24.00001 0,12.66668 1.3333,24.66668 2,11.33334 7.3334,18.66668 5.3333,7.33334 14,8.66667 9.3333,1.33333 24,-8 10.6667,-6.66667 21.3333,-16.00001 11.3334,-10.00001 20.0001,-21.33335 9.3333,-11.33334 15.3333,-24.00001 6.6667,-12.66667 9.3333,-25.33334 1.3334,-6.00001 2.6667,-11.33334 2,-5.33334 4.6667,-8.66667 3.3333,-3.33334 8,-3.33334 4.6666,0 12,4 7.3333,4.00001 5.3333,18.00001 -2,14.00001 -10.6667,32.00002 -8.6666,17.33334 -23.3333,36.66668 -14,18.66668 -31.3333,34.00002 -16.6667,14.66667 -35.3334,23.33334 -18.6667,8.00001 -36,4.00001 -21.3334,-4.66667 -30.6667,-22.00002 -8.6667,-18 -11.3333,-40.00001 -2,-22.00002 0,-44.66669 2,-23.33335 2.6666,-39.33336 1.3334,-38.00001 -8,-44.00002 -9.3333,-6.66667 -24.6667,7.33334 -14.6666,14.00001 -32.6666,41.33335 -17.3334,27.33335 -34,56.00003 -16.0001,28.00001 -28.0001,51.33336 -12,23.33334 -15.3333,28.66668 -4,7.33334 -9.3333,11.33334 -5.3334,4 -14.6667,0.66667 -9.3334,-3.33334 -11.3334,-10.00001 -2.6666,-7.33334 -2,-16.00001 2,-32.66668 10,-66.6667 7.3334,-34.00001 15.3334,-66.00003 19.3333,-80.00004 40,-158.66674 20.6667,-79.33337 42.6667,-158.66675 1.3333,-5.33333 3.3333,-9.33333 2,-4.00001 8.6667,-5.33334 11.3333,-2.66667 18.6667,5.33334 7.3333,8 6,18.66667 -2,23.33335 -12,48.00002 -9.3334,24.00002 -16,47.33336 -11.3334,39.33335 -20,78.66671 -8.6667,38.66668 -18.6667,78.6667 -5.3334,19.33334 -12,40.66669 -6.6667,21.33334 -8,41.33335 l 0.6666,1.33334 z m 292.0004,-91.33338 q 2.6666,-8.00001 10,-10.00001 7.3333,-2.66667 14,-0.66666 6.6666,2 10.6666,8 4.6667,5.33334 2.6667,14.00001 -5.3333,20.00001 -12,40.66668 -6.6667,20.00001 -12.6667,40.66669 -10,36.00002 -8.6666,54.00003 1.3333,17.33334 10,22.00001 9.3333,4 23.3333,-2.66667 14,-6.66667 28.6667,-20.00001 15.3333,-14.00001 29.3333,-31.33335 14,-18.00001 22.6667,-36.00002 2,-4 3.3334,-6.66667 1.3333,-3.33333 4.6666,-6.66667 4.6667,-5.33333 10.6667,-5.33333 6.6667,0 10.6667,4 4.6666,3.33333 6.6666,9.33334 2,6 -0.6666,12.66667 -10.6667,24.00001 -29.3334,50.66669 -18.6667,26.66668 -46,47.33336 -28.6667,22.00001 -51.3334,25.33334 -22,3.33334 -36.6666,-6.66667 -14.6667,-10 -21.3334,-30.00001 -6.6667,-20.00001 -4.6667,-44.66669 2.6667,-30.00001 14.0001,-64.6667 11.3333,-34.66668 22,-63.33336 z m 44,-69.33337 q -11.3334,0 -16.6667,-6 -4.6667,-6.66667 -4,-14.00001 0.6667,-7.33334 6,-13.33334 5.3333,-6 14.6667,-6 10,0 14.6667,6.66667 5.3333,6 4.6666,13.33334 0,7.33333 -5.3333,13.33334 -4.6667,6 -14,6 z m 105.3329,164.00008 q -5.3333,18.00001 -2,34.66668 4,16.00001 14,28.00002 10.6667,11.33334 26,17.33334 16,6 34,2.66667 32.6667,-5.33334 56.6667,-22.66668 24.6667,-17.33334 42.6667,-36.66669 18,-19.33334 30.6667,-35.33335 12.6667,-16 21.3333,-18.66667 4.6667,-1.33334 8.6667,0 4,1.33333 6.6667,4.66667 3.3333,3.33333 4,7.33333 0.6666,4.00001 -2,8.00001 -12.6667,22.00001 -31.3334,44.66669 -18.6667,22.00001 -41.3333,40.66668 -22.6667,18.00001 -48.6667,30.66668 -25.3334,12.00001 -51.3334,14.00001 -24.6667,2 -45.3333,-5.33333 -20.6667,-8.00001 -35.3334,-23.33335 -14,-16.00001 -20.6667,-37.33335 -7.3333,-21.33334 -4,-46.00002 2.6667,-22.00001 13.3334,-44.00002 10.6666,-22.66668 27.3333,-42.00002 16.6667,-19.33335 36.6667,-33.33335 20.6667,-14.00001 42.6667,-19.33335 24,-6 41.3333,-0.66666 17.3334,5.33333 26.6667,18 9.3334,12.00001 10,29.33335 1.3334,17.33334 -6.6666,35.33335 -8,17.33334 -26,33.33335 -18.0001,15.33334 -46.6667,24.66668 -12.6667,4 -26.0001,5.33334 -12.6666,1.33333 -25.3333,-2 -8,-2 -15.3333,-5.33334 -6.6667,-3.33333 -14.6667,-6.66667 z m 20,-40.66669 q 4.6667,13.33334 16,17.33335 11.3333,3.33333 24.6667,0.66666 14,-3.33333 27.3333,-11.33334 14,-8 23.3334,-18.00001 10,-10 13.3333,-20.66667 3.3334,-10.66667 -4,-19.33334 -4.6667,-5.33334 -10.6667,-5.33334 -5.3333,-0.66667 -12,0.66667 -25.3333,5.33333 -44,21.33334 -18.6667,15.33334 -34,34.66668 z"
     id="text1"
     aria-label="ashie" /><path
     style="mix-blend-mode:normal;fill:url(#linearGradient24);filter:url(#filter24)"
     d="m 392.02156,793.79794 h -6.58031 l -10.916,-13.62 -10.91589,-13.6201 -32.02451,2.2587 -32.0245,2.2586 -6.46501,-6.465 -6.46499,-6.465 10.6141,-11.7284 10.6141,-11.7285 -30.32121,-15.3649 -30.32119,-15.3649 h -8.8295 -8.8296 l -4.3758,-7.0802 -4.3758,-7.0802 21.4342,-18.5285 21.4343,-18.5284 -20.217,-13.2526 -20.217,-13.2525 -9.5245,-18.4185 -9.5246,-18.4186 1.8483,-19.0838 1.8484,-19.0838 19.4652,-1.8768 19.4652,-1.8768 v -23.2243 -23.2242 l 5.8655,-3.6251 5.8656,-3.6251 13.5997,7.3063 13.5997,7.3063 17.9679,3.6975 17.96791,3.6974 v 8.7385 8.7384 l -25.45461,-0.517 -25.4545,-0.5169 v 5.0089 5.0089 h 13.9292 13.9293 l 13.0226,13.862 13.02261,13.8619 v 6.7471 6.7472 l -6.43271,3.9756 -6.4326,3.9756 -13.0326,-11.6098 -13.0325,-11.6097 -28.6562,2.6179 -28.6561,2.6178 3.89,12.8564 3.89,12.8564 12.3342,13.4759 12.3343,13.4759 h 4.5553 4.5554 l 16.8605,7.1877 16.8605,7.1876 23.95721,0.299 23.9572,0.299 v 8.3693 8.3694 l -41.77341,11.4432 -41.7734,11.4433 -2.5943,2.5943 -2.5943,2.5943 40.4863,18.3573 40.48621,18.3573 -2.9993,11.4694 -2.9993,11.4693 20.9929,-8.7714 20.9929,-8.7714 5.3531,3.3084 5.353,3.3083 v 14.6198 14.6198 h 5.061 5.0611 l 10.2982,-11.3794 10.2982,-11.3794 29.1351,1.309 29.135,1.309 9.6089,7.9747 9.6088,7.9746 -2.1944,6.5877 -2.1944,6.5877 -36.8998,0.5367 -36.8997,0.5367 -10.9886,9.9446 -10.9886,9.9446 z m 355.96553,-0.1993 -7.05192,-0.1992 -12.54949,-10.4919 -12.54949,-10.4919 -33.93701,1.0229 -33.93701,1.0229 -3.6339,-5.8797 -3.63389,-5.8798 9.46637,-9.4664 9.46637,-9.4663 29.78675,-1.3383 29.78675,-1.3383 10.29822,11.3794 10.29822,11.3794 h 5.06102 5.06103 v -14.6198 -14.6198 l 5.35303,-3.3083 5.35304,-3.3084 20.99291,8.7714 20.99292,8.7714 -2.99931,-11.4693 -2.9993,-11.4694 40.48624,-18.3573 40.48624,-18.3573 -2.59429,-2.5943 -2.5943,-2.5943 -41.77337,-11.4433 -41.77336,-11.4432 v -8.3694 -8.3693 l 23.9572,-0.299 23.95719,-0.299 16.86048,-7.1876 16.86047,-7.1877 h 4.55538 4.55538 l 12.33424,-13.4759 12.33423,-13.4759 3.89,-12.8564 3.89,-12.8564 -28.65614,-2.6178 -28.65614,-2.6179 -13.03255,11.6097 -13.03255,11.6098 -6.43267,-3.9756 -6.43267,-3.9756 v -7.5865 -7.5864 l 13.86194,-13.0227 13.86194,-13.0226 h 13.0899 13.08991 v -5.0089 -5.0089 l -25.45452,0.5169 -25.45453,0.517 v -8.7384 -8.7385 l 17.9679,-3.6974 17.9679,-3.6975 13.5997,-7.3063 13.59971,-7.3063 5.86552,3.6251 5.86552,3.6251 v 23.2242 23.2243 l 19.46522,1.8768 19.46522,1.8768 1.84835,19.0838 1.84836,19.0838 -9.52459,18.4186 -9.52458,18.4185 -20.21698,13.2525 -20.21698,13.2526 21.43427,18.5284 21.43427,18.5285 -4.3758,7.0802 -4.37581,7.0802 h -8.82958 -8.82959 l -30.3212,15.3649 -30.3212,15.3649 10.6141,11.7285 10.6141,11.7284 -6.46499,6.465 -6.46498,6.465 -32.02448,-2.2586 -32.02447,-2.2587 -10.91598,13.6201 -10.91598,13.62 z m -208.16504,-101.752 -8.5124,-0.1331 -14.3373,-11.0236 -14.3373,-11.0237 4.5824,-7.4145 4.5825,-7.4145 17.4846,3.497 17.4847,3.4969 11.73544,-7.3289 11.73544,-7.3289 11.73545,7.3289 11.73544,7.3289 17.48467,-3.4969 17.48467,-3.497 4.58242,7.4145 4.58241,7.4145 -14.3373,11.0237 -14.33731,11.0236 -8.51235,0.1331 -8.51235,0.1332 -10.95287,-9.9122 -10.95288,-9.9122 -10.95287,9.9122 -10.95291,9.9122 z m 29.37743,-59.7598 h -9.0814 l -9.91222,-10.9529 -9.9122,-10.9528 v -6.6616 -6.6615 l 6.2516,-3.8638 6.25171,-3.8637 8.72159,7.2383 8.72158,7.2382 8.72159,-7.2382 8.72159,-7.2383 6.25166,3.8637 6.25166,3.8638 v 7.7022 7.7022 l -10.95287,9.9122 -10.95288,9.9122 z m -89.38633,-48.1298 -27.5394,0.2154 -9.607,-29.7465 -9.6071,-29.7466 7.9102,-30.4945 7.9102,-30.4945 16.8808,-17.6198 16.8809,-17.6199 h 16.6408 16.6409 l 18.1744,17.7661 18.17439,17.766 v 26.26 26.2599 l -6.84649,20.359 -6.8465,20.359 -15.6134,13.2605 -15.6134,13.2605 z m 180.85399,0 -27.53935,-0.2154 -15.61337,-13.2605 -15.61337,-13.2605 -6.8465,-20.359 -6.84651,-20.359 v -26.2599 -26.26 l 18.1744,-17.766 18.1744,-17.7661 h 16.64085 16.64085 l 16.88086,17.6199 16.88085,17.6198 7.91018,30.4945 7.91018,30.4945 -9.60706,29.7466 -9.60707,29.7465 z m -247.20448,-34.7071 -1.9389,13.3746 -15.9559,-19.0204 -15.9559,-19.0204 -7.1989,-21.813 -7.199,-21.813 3.0059,-22.4101 3.0058,-22.4102 10.6111,-22.3613 10.6111,-22.3613 8.4432,-3.2399 8.4431,-3.2399 6.64299,6.643 6.6431,6.6431 -9.8641,10.8996 -9.86399,10.8997 -7.03461,30.4755 -7.0346,30.4754 13.28931,27.452 13.2893,27.452 z m 327.32179,-0.8717 -14.82253,13.9251 v -14.1263 -14.1263 l 12.84763,-26.5397 12.84763,-26.5397 -7.03458,-30.4754 -7.03458,-30.4755 -9.86404,-10.8997 -9.86404,-10.8996 6.64305,-6.6431 6.64305,-6.643 8.44312,3.2399 8.44311,3.2399 10.61113,22.3613 10.61114,22.3613 3.10601,23.1571 3.10601,23.1571 -9.9298,26.0008 -9.9298,26.0008 z m -462.4367,-73.5363 -7.4007,2.464 -6.821,-16.941 -6.821,-16.941 -5.1199,-11.9786 -5.12,-11.9786 -6.7772,-17.9679 -6.7772,-17.9679 -8.1063,-32.9412 -8.1063,-32.9411 -0.2133,-41.9442 -0.2134,-41.9441 11.4433,-38.9114 11.4433,-38.9114 14.8743,-35.7244 14.8743,-35.7243 6.9515,-2.317202 6.9515,-2.3172 23.8185,23.582702 23.81841,23.5827 -3.77,9.8246 -3.77011,9.8246 -20.0901,-15.3236 -20.09021,-15.3235 -9.8665,22.9525 -9.8666,22.9524 -11.3822,38.9114 -11.3822,38.9114 0.2134,35.9548 0.2133,35.9549 8.1225,32.9411 8.1226,32.9412 4.52531,11.9786 4.52539,11.9786 11.4491,25.9011 11.4491,25.9012 -1.8505,9.5383 -1.8504,9.5384 z m 586.49468,1.5231 h -5.11949 l -3.99286,-3.9928 -3.99287,-3.9929 0.0369,-9.4831 0.0369,-9.483 7.8886,-15.115 7.8886,-15.1151 7.60762,-20.8207 7.60762,-20.8208 8.21073,-32.9412 8.21073,-32.9411 0.21335,-35.9549 0.21335,-35.9548 -11.38221,-38.9114 -11.38221,-38.9114 -9.86653,-22.9524 -9.86653,-22.9525 -20.09017,15.3235 -20.09018,15.3236 -3.77004,-9.8246 -3.77005,-9.8246 23.81845,-23.5827 23.81845,-23.582702 6.9515,2.3172 6.9515,2.317202 14.87432,35.7243 14.87432,35.7244 11.44328,38.9114 11.44329,38.9114 -0.21335,41.9441 -0.21334,41.9442 -8.10631,32.9411 -8.10631,32.9412 -6.77719,17.9679 -6.77718,17.9679 -5.11997,11.9786 -5.11996,11.9786 -6.60664,16.4706 -6.60663,16.4705 z m -317.06057,-58.9961 -5.6002,5.6001 -7.6666,-9.2378 -7.6667,-9.2378 h -31.01 -31.0099 l -6.9333,6.9334 -6.9333,6.9333 -9.6327,-7.9944 -9.6327,-7.9945 -8.5891,-16.6093 -8.589,-16.6094 v -23.57 -23.57 l 8.9471,-17.1552 8.947,-17.1552 0.037,-12.5827 0.037,-12.5828 -28.7373,-38.3263 -28.7373,-38.3263 -12.765,-18.2986 -12.7649,-18.2986 4.8579,-7.8603 4.8579,-7.8602 35.147,24.4944 35.1471,24.4945 28.4491,24.7476 28.4492,24.7475 v -27.2216 -27.2217 l 6.8111,-4.2095 6.8111,-4.2095 11.3605,14.3373 11.3605,14.3373 11.4367,21.5583 11.4366,21.5583 0.3569,32.3454 0.3569,32.3454 -2.8994,41.0344 -2.8993,41.0345 6.4302,12.0149 6.43019,12.015 z m 57.96296,-3.5014 -10.35827,9.3742 -3.86623,-6.2557 -3.86622,-6.2557 6.15231,-11.4957 6.15232,-11.4957 -2.89934,-41.0345 -2.89934,-41.0344 0.35687,-32.3454 0.35688,-32.3454 11.43666,-21.5583 11.43666,-21.5583 11.36049,-14.3373 11.36049,-14.3373 6.81112,4.2095 6.81111,4.2095 v 27.2217 27.2216 l 28.44918,-24.7475 28.44917,-24.7476 35.14702,-24.4945 35.14702,-24.4944 4.85789,7.8602 4.8579,7.8603 -12.76493,18.2986 -12.76492,18.2986 -28.73731,38.3263 -28.73732,38.3263 0.0369,12.5828 0.0369,12.5827 8.94706,17.1552 8.94705,17.1552 v 23.57 23.57 l -8.58904,16.6094 -8.58903,16.6093 -9.6327,7.9945 -9.6327,7.9944 -6.93333,-6.9333 -6.93332,-6.9334 h -29.77437 -29.77436 z m -35.50468,-57.2885 h -5.56785 l -6.66122,-12.4466 -6.66123,-12.4466 3.26788,-8.5159 3.26787,-8.5159 h 12.35455 12.35455 l 3.26787,8.5159 3.26787,8.5159 -6.66122,12.4466 -6.66122,12.4466 z"
     id="path16-9" /><path
     style="fill:url(#linearGradient23)"
     d="m 392.02156,793.79794 h -6.5803 l -10.916,-13.62 -10.9159,-13.6201 -32.0245,2.2587 -32.02451,2.2586 -6.465,-6.465 -6.465,-6.465 10.6141,-11.7284 10.6141,-11.7285 -30.3212,-15.3649 -30.3212,-15.3649 h -8.8295 -8.8296 l -4.3758,-7.0802 -4.3758,-7.0802 21.4342,-18.5285 21.4343,-18.5284 -20.217,-13.2526 -20.217,-13.2525 -9.5245,-18.4185 -9.5246,-18.4186 1.8483,-19.0838 1.8484,-19.0838 19.4652,-1.8768 19.4652,-1.8768 v -23.2243 -23.2242 l 5.8655,-3.6251 5.8656,-3.6251 13.5997,7.3063 13.5997,7.3063 17.9679,3.6975 17.96791,3.6974 v 8.7385 8.7384 l -25.45461,-0.517 -25.4545,-0.5169 v 5.0089 5.0089 h 13.9292 13.9293 l 13.0226,13.862 13.02261,13.8619 v 6.7471 6.7472 l -6.43271,3.9756 -6.4326,3.9756 -13.0326,-11.6098 -13.0325,-11.6097 -28.6562,2.6179 -28.6561,2.6178 3.89,12.8564 3.89,12.8564 12.3342,13.4759 12.3343,13.4759 h 4.5553 4.5554 l 16.8605,7.1877 16.8605,7.1876 23.95721,0.299 23.9572,0.299 v 8.3693 8.3694 l -41.77341,11.4432 -41.7734,11.4433 -2.5943,2.5943 -2.5943,2.5943 40.4863,18.3573 40.48621,18.3573 -2.9993,11.4694 -2.9993,11.4693 20.9929,-8.7714 20.9929,-8.7714 5.3531,3.3084 5.353,3.3083 v 14.6198 14.6198 h 5.061 5.0611 l 10.2982,-11.3794 10.2982,-11.3794 29.1351,1.309 29.135,1.309 9.6089,7.9747 9.6088,7.9746 -2.1944,6.5877 -2.1944,6.5877 -36.8998,0.5367 -36.8997,0.5367 -10.9886,9.9446 -10.9886,9.9446 z m 355.96553,-0.1993 -7.05192,-0.1992 -12.54949,-10.4919 -12.54949,-10.4919 -33.93701,1.0229 -33.93701,1.0229 -3.6339,-5.8797 -3.63389,-5.8798 9.46637,-9.4664 9.46637,-9.4663 29.78676,-1.3383 29.78675,-1.3383 10.29822,11.3794 10.29821,11.3794 h 5.06103 5.06103 v -14.6198 -14.6198 l 5.35303,-3.3083 5.35304,-3.3084 20.99291,8.7714 20.99292,8.7714 -2.99931,-11.4693 -2.9993,-11.4694 40.48624,-18.3573 40.48624,-18.3573 -2.59429,-2.5943 -2.5943,-2.5943 -41.77337,-11.4433 -41.77336,-11.4432 v -8.3694 -8.3693 l 23.9572,-0.299 23.95719,-0.299 16.86048,-7.1876 16.86047,-7.1877 h 4.55538 4.55538 l 12.33424,-13.4759 12.33423,-13.4759 3.89,-12.8564 3.89,-12.8564 -28.65614,-2.6178 -28.65614,-2.6179 -13.03255,11.6097 -13.03255,11.6098 -6.43267,-3.9756 -6.43267,-3.9756 v -7.5865 -7.5864 l 13.86194,-13.0227 13.86194,-13.0226 h 13.0899 13.08991 v -5.0089 -5.0089 l -25.45452,0.5169 -25.45453,0.517 v -8.7384 -8.7385 l 17.9679,-3.6974 17.9679,-3.6975 13.5997,-7.3063 13.59971,-7.3063 5.86552,3.6251 5.86552,3.6251 v 23.2242 23.2243 l 19.46522,1.8768 19.46522,1.8768 1.84835,19.0838 1.84836,19.0838 -9.52459,18.4186 -9.52458,18.4185 -20.21698,13.2525 -20.21698,13.2526 21.43427,18.5284 21.43427,18.5285 -4.3758,7.0802 -4.37581,7.0802 h -8.82958 -8.82959 l -30.3212,15.3649 -30.3212,15.3649 10.6141,11.7285 10.6141,11.7284 -6.46499,6.465 -6.46498,6.465 -32.02448,-2.2586 -32.02447,-2.2587 -10.91598,13.6201 -10.91598,13.62 z m -208.16503,-101.752 -8.5124,-0.1331 -14.3373,-11.0236 -14.3373,-11.0237 4.5824,-7.4145 4.5825,-7.4145 17.4846,3.497 17.4847,3.4969 11.73544,-7.3289 11.73544,-7.3289 11.73545,7.3289 11.73544,7.3289 17.48467,-3.4969 17.48467,-3.497 4.58242,7.4145 4.58241,7.4145 -14.3373,11.0237 -14.33731,11.0236 -8.51235,0.1331 -8.51235,0.1332 -10.95287,-9.9122 -10.95288,-9.9122 -10.95287,9.9122 -10.95291,9.9122 z m 29.37742,-59.7598 h -9.0814 l -9.91222,-10.9529 -9.9122,-10.9528 v -6.6616 -6.6615 l 6.2516,-3.8638 6.25171,-3.8637 8.72159,7.2383 8.72158,7.2382 8.72159,-7.2382 8.72159,-7.2383 6.25166,3.8637 6.25166,3.8638 v 7.7022 7.7022 l -10.95287,9.9122 -10.95288,9.9122 z m -89.38632,-48.1298 -27.5394,0.2154 -9.607,-29.7465 -9.6071,-29.7466 7.9102,-30.4945 7.9102,-30.4945 16.8808,-17.6198 16.8809,-17.6199 h 16.6408 16.6409 l 18.1744,17.7661 18.17439,17.766 v 26.26 26.2599 l -6.84649,20.359 -6.8465,20.359 -15.6134,13.2605 -15.6134,13.2605 z m 180.85398,0 -27.53935,-0.2154 -15.61337,-13.2605 -15.61337,-13.2605 -6.8465,-20.359 -6.84651,-20.359 v -26.2599 -26.26 l 18.1744,-17.766 18.1744,-17.7661 h 16.64085 16.64085 l 16.88086,17.6199 16.88085,17.6198 7.91018,30.4945 7.91018,30.4945 -9.60706,29.7466 -9.60706,29.7465 z m -247.20448,-34.7071 -1.9389,13.3746 -15.9559,-19.0204 -15.9559,-19.0204 -7.1989,-21.813 -7.199,-21.813 3.0059,-22.4101 3.0058,-22.4102 10.6111,-22.3613 10.6111,-22.3613 8.4432,-3.2399 8.4431,-3.2399 6.643,6.643 6.6431,6.6431 -9.8641,10.8996 -9.864,10.8997 -7.0346,30.4755 -7.0346,30.4754 13.2893,27.452 13.2893,27.452 z m 327.32179,-0.8717 -14.82252,13.9251 v -14.1263 -14.1263 l 12.84763,-26.5397 12.84763,-26.5397 -7.03458,-30.4754 -7.03458,-30.4755 -9.86404,-10.8997 -9.86404,-10.8996 6.64305,-6.6431 6.64305,-6.643 8.44312,3.2399 8.44311,3.2399 10.61113,22.3613 10.61114,22.3613 3.10601,23.1571 3.10601,23.1571 -9.9298,26.0008 -9.9298,26.0008 z m -462.4367,-73.5363 -7.4007,2.464 -6.821,-16.941 -6.821,-16.941 -5.1199,-11.9786 -5.12,-11.9786 -6.7772,-17.9679 -6.7772,-17.9679 -8.1063,-32.9412 -8.1063,-32.9411 -0.2133,-41.9442 -0.2134,-41.9441 11.4433,-38.9114 11.4433,-38.9114 14.8743,-35.7244 14.8743,-35.7243 6.9515,-2.317198 6.9515,-2.3172 23.8185,23.582698 23.81841,23.5827 -3.77,9.8246 -3.7701,9.8246 -20.09011,-15.3236 -20.0902,-15.3235 -9.8665,22.9525 -9.8666,22.9524 -11.3822,38.9114 -11.3822,38.9114 0.2134,35.9548 0.2133,35.9549 8.1225,32.9411 8.1226,32.9412 4.5253,11.9786 4.5254,11.9786 11.4491,25.9011 11.4491,25.9012 -1.8505,9.5383 -1.8504,9.5384 z m 586.49468,1.5231 h -5.11949 l -3.99286,-3.9928 -3.99287,-3.9929 0.0369,-9.4831 0.0369,-9.483 7.8886,-15.115 7.8886,-15.1151 7.60762,-20.8207 7.60762,-20.8208 8.21073,-32.9412 8.21073,-32.9411 0.21335,-35.9549 0.21335,-35.9548 -11.38221,-38.9114 -11.38221,-38.9114 -9.86653,-22.9524 -9.86653,-22.9525 -20.09017,15.3235 -20.09018,15.3236 -3.77004,-9.8246 -3.77005,-9.8246 23.81845,-23.5827 23.81845,-23.582698 6.9515,2.3172 6.9515,2.317198 14.87432,35.7243 14.87432,35.7244 11.44328,38.9114 11.44329,38.9114 -0.21335,41.9441 -0.21334,41.9442 -8.10631,32.9411 -8.10631,32.9412 -6.77719,17.9679 -6.77718,17.9679 -5.11997,11.9786 -5.11996,11.9786 -6.60664,16.4706 -6.60663,16.4705 z m -317.06057,-58.9961 -5.6002,5.6001 -7.6666,-9.2378 -7.6667,-9.2378 h -31.01 -31.0099 l -6.9333,6.9334 -6.9333,6.9333 -9.6327,-7.9944 -9.6327,-7.9945 -8.5891,-16.6093 -8.589,-16.6094 v -23.57 -23.57 l 8.9471,-17.1552 8.947,-17.1552 0.037,-12.5827 0.037,-12.5828 -28.7373,-38.3263 -28.7373,-38.3263 -12.765,-18.2986 -12.7649,-18.2986 4.8579,-7.8603 4.8579,-7.8602 35.147,24.4944 35.1471,24.4945 28.4491,24.7476 28.4492,24.7475 v -27.2216 -27.2217 l 6.8111,-4.2095 6.8111,-4.2095 11.3605,14.3373 11.3605,14.3373 11.4367,21.5583 11.4366,21.5583 0.3569,32.3454 0.3569,32.3454 -2.8994,41.0344 -2.8993,41.0345 6.4302,12.0149 6.43019,12.015 z m 57.96296,-3.5014 -10.35827,9.3742 -3.86623,-6.2557 -3.86622,-6.2557 6.15231,-11.4957 6.15232,-11.4957 -2.89934,-41.0345 -2.89934,-41.0344 0.35687,-32.3454 0.35688,-32.3454 11.43666,-21.5583 11.43666,-21.5583 11.36049,-14.3373 11.36049,-14.3373 6.81112,4.2095 6.81111,4.2095 v 27.2217 27.2216 l 28.44918,-24.7475 28.44917,-24.7476 35.14702,-24.4945 35.14702,-24.4944 4.85789,7.8602 4.8579,7.8603 -12.76493,18.2986 -12.76492,18.2986 -28.73731,38.3263 -28.73732,38.3263 0.0369,12.5828 0.0369,12.5827 8.94706,17.1552 8.94705,17.1552 v 23.57 23.57 l -8.58904,16.6094 -8.58903,16.6093 -9.6327,7.9945 -9.6327,7.9944 -6.93333,-6.9333 -6.93332,-6.9334 H 645.87746 616.1031 Z m -35.50468,-57.2885 h -5.56784 l -6.66122,-12.4466 -6.66123,-12.4466 3.26788,-8.5159 3.26787,-8.5159 h 12.35454 12.35455 l 3.26787,8.5159 3.26787,8.5159 -6.66122,12.4466 -6.66122,12.4466 z"
     id="path16" /></svg>
